<svg width="18" height="617" viewBox="0 0 18 617" fill="none" xmlns="http://www.w3.org/2000/svg">
<path d="M9 16V599.5" stroke="black" stroke-width="1.5"/>
<circle cx="9" cy="9" r="9" fill="black"/>
<circle cx="9" cy="608" r="9" fill="black"/>
<path d="M6.22301 13L4.20597 5.72727H5.36009L6.77699 11.3594H6.84446L8.31818 5.72727H9.46165L10.9354 11.3629H11.0028L12.4162 5.72727H13.5739L11.5533 13H10.4489L8.91832 7.55256H8.86151L7.33097 13H6.22301Z" fill="white"/>
<path d="M6.79901 612V604.727H9.39134C9.95478 604.727 10.4223 604.824 10.794 605.018C11.1681 605.213 11.4474 605.481 11.6321 605.825C11.8168 606.165 11.9091 606.56 11.9091 607.007C11.9091 607.452 11.8156 607.844 11.6286 608.183C11.4439 608.519 11.1645 608.78 10.7905 608.967C10.4188 609.154 9.95123 609.248 9.38778 609.248H7.42401V608.303H9.28835C9.64347 608.303 9.93229 608.252 10.1548 608.151C10.3797 608.049 10.5443 607.901 10.6484 607.707C10.7526 607.513 10.8047 607.279 10.8047 607.007C10.8047 606.732 10.7514 606.495 10.6449 606.293C10.5407 606.092 10.3762 605.938 10.1513 605.832C9.92874 605.723 9.63636 605.668 9.27415 605.668H7.89631V612H6.79901ZM10.3892 608.719L12.1861 612H10.9361L9.17472 608.719H10.3892Z" fill="white"/>
</svg>
